<svg width="336" height="64" viewBox="0 0 336 64" xmlns="http://www.w3.org/2000/svg" xmlns:xlink="http://www.w3.org/1999/xlink"><defs><path d="M21.4961583 64c6.1808376 0 11.215387-1.8614909 15.0971353-5.580872 4.0478299-3.8994093 6.0733731-9.1310267 6.0733731-15.6912518 0-5.5952742-1.6412762-10.1751898-4.9238285-13.7469479C34.597059 25.5639944 30.5101511 23.583685 25.4756017 23.04c0 .0648101.3419325-.3024473 1.0257976-1.0873699.8759986-.9361463 1.6836106-1.9371027 2.4228362-2.9956681L41.5985346.864135V0H5.0475754v8.6665541H22.932275c.8499465 0 1.8757441-.06481 3.0773927-.1872292l1.5598637-.1800281-1.0257976 1.1377777c-.7945861.8713362-1.4361166 1.66346-1.9278482 2.354768L11.4465985 30.5723769l.410319.8605345c.9020506-.3888608 1.9962347-.7273137 3.2825523-.9973558 1.6119676-.3348524 3.2532438-.5004782 4.9238284-.5004782 9.0237623 0 13.5372717 4.1442475 13.5372717 12.429142 0 8.5009283-4.1715769 12.7459916-12.5114741 12.7459916-3.2304483 0-6.047321-.9217441-8.4538747-2.7652321-2.0776472-1.5734458-3.7742838-3.7229817-5.0866535-6.4414065L0 50.2602532c1.7226887 4.0758368 4.4711749 7.3631505 8.2454587 9.836737C12.185824 62.7037975 16.6016384 64 21.4961583 64" id="a"/><path d="M240.427039 0c11.277012 0 19.720331 4.1261612 25.329958 12.3784836l-7.551699 5.3365968c-3.909412-5.9809757-9.836701-8.9714636-17.778259-8.9714636-6.519296 0-11.901506 2.2001447-16.14302 6.5933137-4.216245 4.3967292-6.324368 9.9433721-6.324368 16.6363687 0 6.6680759 2.108123 12.2040385 6.324368 16.5972076 4.241514 4.4821716 9.623724 6.7285976 16.14302 6.7285976 4.212635 0 7.89463-.9007064 11.049594-2.6949992 2.938377-1.6447683 5.486894-4.0229181 7.638335-7.1308894l7.551699 5.2013128C260.782695 59.5569895 252.036152 64 240.427039 64c-9.125571 0-16.796394-2.9904878-23.012467-8.9714635-6.335197-6.1305001-9.5046-13.8132058-9.5046-23.0552373 0-9.2064304 3.169403-16.8606553 9.5046-22.9591144C223.630645 3.0047283 231.301468 0 240.427039 0zM131.425555.715581l14.280364 33.5504256c.786936 1.70173 1.649678 4.0656394 2.591835 7.0846081.819425 2.5703955 1.227332 3.916115 1.227332 4.0371586 0-.1815654.36459-1.495244 1.090159-3.948156.942158-3.0189687 1.819339-5.411359 2.638763-7.1736107L167.306955.715581h9.594845l-27.012124 63.1028537h-1.227332L120.92104.715581h10.504515zM1.0468417.0854425l30.2392845 34.8961451L61.3016032.0854426h.9999143v63.1064137h-9.4143553l.0008172-32.7132324c.0076217-1.3736456.0684909-3.1754699.1796727-5.4083675l.1840998-3.2290148-1.956511 2.7804417c-1.4258705 2.0043388-2.6532021 3.5601045-3.6819947 4.663737L31.6507159 48.2109362h-1.0901593L14.6413439 29.2854203c-.9999142-1.1036325-2.1803184-2.6344774-3.5448224-4.5782945l-2.046756-2.8658842.18049 3.2290148c.1227332 2.3923903.1840998 4.2899261.1840998 5.6961674v32.4254325H0V.0854425h1.0468416zm98.4861406 0l27.7376937 63.1064138h-10.23017l-4.685518-11.3923347H85.4331082l-4.6385915 11.3923347h-9.5009904L98.3958957.0854425h1.1370866zM195.835195.715581v62.4762753h-9.775336V.715581h9.775336zM98.7604853 17.5370752l-1.003524 3.3144573c-.7580578 2.4564722-1.4403097 4.4145297-2.0467559 5.8777327l-6.9091549 16.9994993h20.0091145l-6.869447-16.9994993c-.635325-1.463203-1.317576-3.367859-2.0467558-5.6961674-.6966912-1.9722979-1.0757201-3.1435723-1.1334769-3.4960226z" id="b"/></defs><g fill="#FFF" fill-rule="evenodd"><use xlink:href="#a" transform="translate(293.333333)"/><use xlink:href="#b"/></g></svg>