<svg width="244" height="32" viewBox="0 0 244 32" xmlns="http://www.w3.org/2000/svg" xmlns:xlink="http://www.w3.org/1999/xlink"><defs><path d="M12.0751603 32c3.4719973 0 6.3000836-.9307454 8.4806004-2.790436 2.2738106-1.9497046 3.4116306-4.5655134 3.4116306-7.8456259 0-2.7976371-.9219635-5.0875949-2.7658904-6.873474-1.7670966-1.7084669-4.0628588-2.6986216-6.8909451-2.9704641 0 .0324051.1920757-.1512236.5762272-.543685.4920797-.4680731.9457442-.9685513 1.3609936-1.497834L23.3673833.4320675V0H2.8354035v4.333277h10.0464748c.4774454 0 1.0536725-.032405 1.7286815-.0936145l.8762311-.0900141-.5762271.5688889c-.4463474.435668-.8067181.83173-1.0829412 1.177384l-7.3976592 9.3902672.2304909.4302672c.506714-.1944304 1.1213563-.3636568 1.8439269-.4986779.9054998-.1674262 1.8274633-.2502391 2.7658903-.2502391 5.0689698 0 7.6043693 2.0721237 7.6043693 6.214571 0 4.2504641-2.3433238 6.3729958-7.0281421 6.3729958-1.8146582 0-3.3969963-.460872-4.7488435-1.382616-1.1670887-.786723-2.1201501-1.8614909-2.857355-3.2207033L0 25.1301266c.9676958 2.0379184 2.5116187 3.6815752 4.6317688 4.9183685C6.8452128 31.3518987 9.3257335 32 12.0751603 32" id="a"/><path d="M46.0331945.00108v22.7697086c0 3.0386013-.8674609 5.358955-2.5969154 6.9610611C41.8453268 31.2439499 39.6493388 32 36.8501374 32c-2.2215016 0-4.1350182-.5220346-5.7387273-1.5643036-1.4105351-.9072601-2.5185523-2.1619433-3.3313412-3.7658495l4.0402535-2.4715638c.6287269 1.1196742 1.2702105 1.9423287 1.9299182 2.4715638.8091441.6210411 1.7677248.9306616 2.8702748.9306616 2.9522827 0 4.4302464-1.6399086 4.4302464-4.921526V.0010801h4.9824327zM8.7930642 0c5.1118228 0 9.237729 1.4454958 12.3740737 4.332887 3.1217656 2.9035924 4.685382 6.7288458 4.685382 11.4739602 0 4.7325135-1.5472148 8.5361655-4.6379997 11.4073557-3.1399895 2.9179934-7.2786525 4.37609-12.421456 4.37609H0V0zm49.7938923.00072v31.5884928h-4.9350503V.00072h4.9350503zM8.4730513 4.3337871H4.9831616v22.9479203h3.4898897c4.0092728 0 7.0781889-1.0728711 9.2049259-3.2186132 2.0046364-2.0107332 3.0069545-4.7631156 3.0069545-8.2553469 0-3.5066324-1.0023181-6.2662152-3.0069545-8.2769484-2.126737-2.1313412-5.1956531-3.1970118-9.2049259-3.1970118z" id="b"/><path d="M120.050186 0c5.630845 0 9.846768 2.0630806 12.647771 6.1892418l-3.770719 2.6682984c-1.95205-2.9904879-4.911668-4.4857318-8.877052-4.4857318-3.255219 0-5.942668 1.1000723-8.060543 3.2966569-2.105259 2.1983645-3.157888 4.971686-3.157888 8.3181843 0 3.3340379 1.052629 6.1020193 3.157888 8.2986038 2.117875 2.2410858 4.805324 3.3642988 8.060543 3.3642988 2.103456 0 3.941952-.4503532 5.517291-1.3474996 1.467191-.8223841 2.739719-2.0114591 3.813978-3.5654447l3.770719 2.6006564C130.214185 29.7784947 125.846856 32 120.050186 32c-4.556586 0-8.386786-1.4952439-11.4906-4.4857318-3.163295-3.06525-4.745843-6.9066028-4.745843-11.5276186 0-4.6032152 1.582548-8.4303276 4.745843-11.4795572C111.6634 1.5023641 115.4936 0 120.050186 0zM65.6234937.3577905l7.1304807 16.7752128c.3929334.850865.8237183 2.0328197 1.294157 3.542304.4091555 1.2851978.612832 1.9580576.612832 2.0185793 0-.0907826.1820471-.7476219.544339-1.974078.4704387-1.5094843.9084333-2.7056794 1.3175888-3.5868053L83.5398177.3577905h4.7909044L74.8430105 31.9092173h-.612832L60.3783726.3577905h5.2451211zM.5227097.0427213l15.0990992 17.4480725L30.6091565.0427213h.4992778V31.595928h-4.700782V15.3832119c0-.7031207.0306416-1.6518885.0901224-2.8480837l.0919248-1.6145074-.9769263 1.3902208c-.7119666 1.0021695-1.3247987 1.7800523-1.8384961 2.3318685l-7.970421 9.462758h-.544339l-7.9487917-9.462758c-.4992779-.5518162-1.088678-1.3172387-1.770003-2.2891472l-1.0219875-1.4329421.0901223 1.6145074c.0612832 1.1961952.0919248 2.144963.0919248 2.8480837v16.2127162H0V.0427213h.5227097zm49.1761639 0L63.5488771 31.595928H58.440742l-2.3395763-5.6961673H42.6585153l-2.3161445 5.6961673H35.59833L49.1311028.0427213h.5677708zm48.0856835.3150692v31.2381376h-4.8810267V.3577905h4.8810267zm-48.4714072 8.410747l-.5010802 1.6572288c-.3785139 1.228236-.7191764 2.2072648-1.0219875 2.9388663l-3.4498838 8.4997497h9.9909642l-3.4300568-8.4997497c-.3172307-.7316015-.6578932-1.6839295-1.0219875-2.8480837-.3478723-.986149-.5371292-1.5717861-.5659684-1.7480113z" id="c"/></defs><g fill="#FFF" fill-rule="evenodd"><use xlink:href="#a" transform="translate(219.701087)"/><use xlink:href="#b"/><use xlink:href="#c" transform="translate(74.565217)"/></g></svg>